<?xml version="1.0" encoding="UTF-8" standalone="no"?>
<!DOCTYPE svg PUBLIC "-//W3C//DTD SVG 1.1//EN"
 "http://www.w3.org/Graphics/SVG/1.1/DTD/svg11.dtd">
<!-- Generated by graphviz version 2.38.0 (20140413.2041)
 -->
<!-- Title: controllers_diagram Pages: 1 -->
<svg width="666pt" height="634pt"
 viewBox="0.00 0.00 665.50 633.50" xmlns="http://www.w3.org/2000/svg" xmlns:xlink="http://www.w3.org/1999/xlink">
<g id="graph0" class="graph" transform="scale(1 1) rotate(0) translate(255.5 377.5)">
<title>controllers_diagram</title>
<polygon fill="none" stroke="none" points="-255.5,256 -255.5,-377.5 410,-377.5 410,256 -255.5,256"/>
<!-- _diagram_info -->
<g id="node1" class="node"><title>_diagram_info</title>
<text text-anchor="start" x="98" y="134.4" font-family="Times,serif" font-size="13.00">Controllers diagram</text>
<text text-anchor="start" x="98" y="148.4" font-family="Times,serif" font-size="13.00">Date: Jan 19 2017 &#45; 12:51</text>
<text text-anchor="start" x="98" y="162.4" font-family="Times,serif" font-size="13.00">Migration version: 20170115151953</text>
<text text-anchor="start" x="98" y="176.4" font-family="Times,serif" font-size="13.00">Generated by RailRoady 1.5.2</text>
<text text-anchor="start" x="98" y="190.4" font-family="Times,serif" font-size="13.00">http://railroady.prestonlee.com</text>
</g>
<!-- UsersController -->
<g id="node2" class="node"><title>UsersController</title>
<path fill="none" stroke="black" d="M-41.5,143C-41.5,143 37.5,143 37.5,143 43.5,143 49.5,137 49.5,131 49.5,131 49.5,-103 49.5,-103 49.5,-109 43.5,-115 37.5,-115 37.5,-115 -41.5,-115 -41.5,-115 -47.5,-115 -53.5,-109 -53.5,-103 -53.5,-103 -53.5,131 -53.5,131 -53.5,137 -47.5,143 -41.5,143"/>
<text text-anchor="middle" x="-2" y="-99.8" font-family="Times,serif" font-size="14.00">UsersController</text>
<polyline fill="none" stroke="black" points="-53.5,-92 49.5,-92 "/>
<text text-anchor="start" x="-45.5" y="-76.8" font-family="Times,serif" font-size="14.00">create</text>
<text text-anchor="start" x="-45.5" y="-61.8" font-family="Times,serif" font-size="14.00">destroy</text>
<text text-anchor="start" x="-45.5" y="-46.8" font-family="Times,serif" font-size="14.00">edit</text>
<text text-anchor="start" x="-45.5" y="-31.8" font-family="Times,serif" font-size="14.00">index</text>
<text text-anchor="start" x="-45.5" y="-16.8" font-family="Times,serif" font-size="14.00">new</text>
<text text-anchor="start" x="-45.5" y="-1.8" font-family="Times,serif" font-size="14.00">show</text>
<text text-anchor="start" x="-45.5" y="13.2" font-family="Times,serif" font-size="14.00">update</text>
<polyline fill="none" stroke="black" points="-53.5,21 49.5,21 "/>
<polyline fill="none" stroke="black" points="-53.5,45 49.5,45 "/>
<text text-anchor="start" x="-45.5" y="60.2" font-family="Times,serif" font-size="14.00">_layout</text>
<text text-anchor="start" x="-45.5" y="75.2" font-family="Times,serif" font-size="14.00">admin_user</text>
<text text-anchor="start" x="-45.5" y="90.2" font-family="Times,serif" font-size="14.00">correct_user</text>
<text text-anchor="start" x="-45.5" y="105.2" font-family="Times,serif" font-size="14.00">logged_in_user</text>
<text text-anchor="start" x="-45.5" y="120.2" font-family="Times,serif" font-size="14.00">require_login</text>
<text text-anchor="start" x="-45.5" y="135.2" font-family="Times,serif" font-size="14.00">user_params</text>
</g>
<!-- SessionsController -->
<g id="node3" class="node"><title>SessionsController</title>
<path fill="none" stroke="black" d="M-239.5,251.5C-239.5,251.5 -144.5,251.5 -144.5,251.5 -138.5,251.5 -132.5,245.5 -132.5,239.5 -132.5,239.5 -132.5,140.5 -132.5,140.5 -132.5,134.5 -138.5,128.5 -144.5,128.5 -144.5,128.5 -239.5,128.5 -239.5,128.5 -245.5,128.5 -251.5,134.5 -251.5,140.5 -251.5,140.5 -251.5,239.5 -251.5,239.5 -251.5,245.5 -245.5,251.5 -239.5,251.5"/>
<text text-anchor="middle" x="-192" y="143.7" font-family="Times,serif" font-size="14.00">SessionsController</text>
<polyline fill="none" stroke="black" points="-251.5,151.5 -132.5,151.5 "/>
<text text-anchor="start" x="-243.5" y="166.7" font-family="Times,serif" font-size="14.00">create</text>
<text text-anchor="start" x="-243.5" y="181.7" font-family="Times,serif" font-size="14.00">destroy</text>
<text text-anchor="start" x="-243.5" y="196.7" font-family="Times,serif" font-size="14.00">new</text>
<polyline fill="none" stroke="black" points="-251.5,204.5 -132.5,204.5 "/>
<polyline fill="none" stroke="black" points="-251.5,228.5 -132.5,228.5 "/>
<text text-anchor="start" x="-243.5" y="243.7" font-family="Times,serif" font-size="14.00">_layout</text>
</g>
<!-- StaticPagesController -->
<g id="node4" class="node"><title>StaticPagesController</title>
<path fill="none" stroke="black" d="M-222,-235C-222,-235 -112,-235 -112,-235 -106,-235 -100,-241 -100,-247 -100,-247 -100,-361 -100,-361 -100,-367 -106,-373 -112,-373 -112,-373 -222,-373 -222,-373 -228,-373 -234,-367 -234,-361 -234,-361 -234,-247 -234,-247 -234,-241 -228,-235 -222,-235"/>
<text text-anchor="middle" x="-167" y="-357.8" font-family="Times,serif" font-size="14.00">StaticPagesController</text>
<polyline fill="none" stroke="black" points="-234,-350 -100,-350 "/>
<text text-anchor="start" x="-226" y="-334.8" font-family="Times,serif" font-size="14.00">about</text>
<text text-anchor="start" x="-226" y="-319.8" font-family="Times,serif" font-size="14.00">contact</text>
<text text-anchor="start" x="-226" y="-304.8" font-family="Times,serif" font-size="14.00">help</text>
<text text-anchor="start" x="-226" y="-289.8" font-family="Times,serif" font-size="14.00">home</text>
<polyline fill="none" stroke="black" points="-234,-282 -100,-282 "/>
<polyline fill="none" stroke="black" points="-234,-258 -100,-258 "/>
<text text-anchor="start" x="-226" y="-242.8" font-family="Times,serif" font-size="14.00">_layout</text>
</g>
<!-- AccountsController -->
<g id="node5" class="node"><title>AccountsController</title>
<path fill="none" stroke="black" d="M-203.5,89C-203.5,89 -104.5,89 -104.5,89 -98.5,89 -92.5,83 -92.5,77 -92.5,77 -92.5,-97 -92.5,-97 -92.5,-103 -98.5,-109 -104.5,-109 -104.5,-109 -203.5,-109 -203.5,-109 -209.5,-109 -215.5,-103 -215.5,-97 -215.5,-97 -215.5,77 -215.5,77 -215.5,83 -209.5,89 -203.5,89"/>
<text text-anchor="middle" x="-154" y="-93.8" font-family="Times,serif" font-size="14.00">AccountsController</text>
<polyline fill="none" stroke="black" points="-215.5,-86 -92.5,-86 "/>
<text text-anchor="start" x="-207.5" y="-70.8" font-family="Times,serif" font-size="14.00">create</text>
<text text-anchor="start" x="-207.5" y="-55.8" font-family="Times,serif" font-size="14.00">destroy</text>
<text text-anchor="start" x="-207.5" y="-40.8" font-family="Times,serif" font-size="14.00">edit</text>
<text text-anchor="start" x="-207.5" y="-25.8" font-family="Times,serif" font-size="14.00">index</text>
<text text-anchor="start" x="-207.5" y="-10.8" font-family="Times,serif" font-size="14.00">new</text>
<text text-anchor="start" x="-207.5" y="4.2" font-family="Times,serif" font-size="14.00">update</text>
<polyline fill="none" stroke="black" points="-215.5,12 -92.5,12 "/>
<polyline fill="none" stroke="black" points="-215.5,36 -92.5,36 "/>
<text text-anchor="start" x="-207.5" y="51.2" font-family="Times,serif" font-size="14.00">_layout</text>
<text text-anchor="start" x="-207.5" y="66.2" font-family="Times,serif" font-size="14.00">account_params</text>
<text text-anchor="start" x="-207.5" y="81.2" font-family="Times,serif" font-size="14.00">require_login</text>
</g>
<!-- ApplicationController -->
<g id="node6" class="node"><title>ApplicationController</title>
<path fill="none" stroke="black" d="M282,-109C282,-109 394,-109 394,-109 400,-109 406,-115 406,-121 406,-121 406,-191 406,-191 406,-197 400,-203 394,-203 394,-203 282,-203 282,-203 276,-203 270,-197 270,-191 270,-191 270,-121 270,-121 270,-115 276,-109 282,-109"/>
<text text-anchor="middle" x="338" y="-187.8" font-family="Times,serif" font-size="14.00">ApplicationController</text>
<polyline fill="none" stroke="black" points="270,-180 406,-180 "/>
<polyline fill="none" stroke="black" points="270,-156 406,-156 "/>
<polyline fill="none" stroke="black" points="270,-132 406,-132 "/>
<text text-anchor="start" x="278" y="-116.8" font-family="Times,serif" font-size="14.00">_layout</text>
</g>
<!-- HistoryMovementsController -->
<g id="node7" class="node"><title>HistoryMovementsController</title>
<path fill="none" stroke="black" d="M102,89.5C102,89.5 256,89.5 256,89.5 262,89.5 268,83.5 268,77.5 268,77.5 268,-51.5 268,-51.5 268,-57.5 262,-63.5 256,-63.5 256,-63.5 102,-63.5 102,-63.5 96,-63.5 90,-57.5 90,-51.5 90,-51.5 90,77.5 90,77.5 90,83.5 96,89.5 102,89.5"/>
<text text-anchor="middle" x="179" y="-48.3" font-family="Times,serif" font-size="14.00">HistoryMovementsController</text>
<polyline fill="none" stroke="black" points="90,-40.5 268,-40.5 "/>
<text text-anchor="start" x="98" y="-25.3" font-family="Times,serif" font-size="14.00">current_record</text>
<text text-anchor="start" x="98" y="-10.3" font-family="Times,serif" font-size="14.00">download</text>
<text text-anchor="start" x="98" y="4.7" font-family="Times,serif" font-size="14.00">previous_record</text>
<text text-anchor="start" x="98" y="19.7" font-family="Times,serif" font-size="14.00">show</text>
<polyline fill="none" stroke="black" points="90,27.5 268,27.5 "/>
<polyline fill="none" stroke="black" points="90,51.5 268,51.5 "/>
<text text-anchor="start" x="98" y="66.7" font-family="Times,serif" font-size="14.00">_layout</text>
<text text-anchor="start" x="98" y="81.7" font-family="Times,serif" font-size="14.00">require_login</text>
</g>
<!-- CategoriesController -->
<g id="node8" class="node"><title>CategoriesController</title>
<path fill="none" stroke="black" d="M120,-109C120,-109 226,-109 226,-109 232,-109 238,-115 238,-121 238,-121 238,-295 238,-295 238,-301 232,-307 226,-307 226,-307 120,-307 120,-307 114,-307 108,-301 108,-295 108,-295 108,-121 108,-121 108,-115 114,-109 120,-109"/>
<text text-anchor="middle" x="173" y="-291.8" font-family="Times,serif" font-size="14.00">CategoriesController</text>
<polyline fill="none" stroke="black" points="108,-284 238,-284 "/>
<text text-anchor="start" x="116" y="-268.8" font-family="Times,serif" font-size="14.00">create</text>
<text text-anchor="start" x="116" y="-253.8" font-family="Times,serif" font-size="14.00">destroy</text>
<text text-anchor="start" x="116" y="-238.8" font-family="Times,serif" font-size="14.00">edit</text>
<text text-anchor="start" x="116" y="-223.8" font-family="Times,serif" font-size="14.00">index</text>
<text text-anchor="start" x="116" y="-208.8" font-family="Times,serif" font-size="14.00">new</text>
<text text-anchor="start" x="116" y="-193.8" font-family="Times,serif" font-size="14.00">update</text>
<polyline fill="none" stroke="black" points="108,-186 238,-186 "/>
<polyline fill="none" stroke="black" points="108,-162 238,-162 "/>
<text text-anchor="start" x="116" y="-146.8" font-family="Times,serif" font-size="14.00">_layout</text>
<text text-anchor="start" x="116" y="-131.8" font-family="Times,serif" font-size="14.00">category_params</text>
<text text-anchor="start" x="116" y="-116.8" font-family="Times,serif" font-size="14.00">require_login</text>
</g>
<!-- MovementsController -->
<g id="node9" class="node"><title>MovementsController</title>
<path fill="none" stroke="black" d="M-59.5,-145C-59.5,-145 53.5,-145 53.5,-145 59.5,-145 65.5,-151 65.5,-157 65.5,-157 65.5,-331 65.5,-331 65.5,-337 59.5,-343 53.5,-343 53.5,-343 -59.5,-343 -59.5,-343 -65.5,-343 -71.5,-337 -71.5,-331 -71.5,-331 -71.5,-157 -71.5,-157 -71.5,-151 -65.5,-145 -59.5,-145"/>
<text text-anchor="middle" x="-3" y="-327.8" font-family="Times,serif" font-size="14.00">MovementsController</text>
<polyline fill="none" stroke="black" points="-71.5,-320 65.5,-320 "/>
<text text-anchor="start" x="-63.5" y="-304.8" font-family="Times,serif" font-size="14.00">clone</text>
<text text-anchor="start" x="-63.5" y="-289.8" font-family="Times,serif" font-size="14.00">create</text>
<text text-anchor="start" x="-63.5" y="-274.8" font-family="Times,serif" font-size="14.00">create_clone</text>
<text text-anchor="start" x="-63.5" y="-259.8" font-family="Times,serif" font-size="14.00">destroy</text>
<text text-anchor="start" x="-63.5" y="-244.8" font-family="Times,serif" font-size="14.00">edit</text>
<text text-anchor="start" x="-63.5" y="-229.8" font-family="Times,serif" font-size="14.00">index</text>
<text text-anchor="start" x="-63.5" y="-214.8" font-family="Times,serif" font-size="14.00">new</text>
<text text-anchor="start" x="-63.5" y="-199.8" font-family="Times,serif" font-size="14.00">update</text>
<polyline fill="none" stroke="black" points="-71.5,-192 65.5,-192 "/>
<polyline fill="none" stroke="black" points="-71.5,-168 65.5,-168 "/>
<text text-anchor="start" x="-63.5" y="-152.8" font-family="Times,serif" font-size="14.00">_layout</text>
</g>
</g>
</svg>
