<?xml version="1.0" encoding="UTF-8" standalone="no"?>
<!DOCTYPE svg PUBLIC "-//W3C//DTD SVG 1.1//EN"
 "http://www.w3.org/Graphics/SVG/1.1/DTD/svg11.dtd">
<!-- Generated by graphviz version 2.38.0 (20140413.2041)
 -->
<!-- Title: controllers_diagram Pages: 1 -->
<svg width="761pt" height="703pt"
 viewBox="0.00 0.00 760.57 703.26" xmlns="http://www.w3.org/2000/svg" xmlns:xlink="http://www.w3.org/1999/xlink">
<g id="graph0" class="graph" transform="scale(1 1) rotate(0) translate(297.567 356.142)">
<title>controllers_diagram</title>
<polygon fill="none" stroke="none" points="-297.567,347.121 -297.567,-356.142 463,-356.142 463,347.121 -297.567,347.121"/>
<!-- _diagram_info -->
<g id="node1" class="node"><title>_diagram_info</title>
<text text-anchor="start" x="253" y="-210.6" font-family="Times,serif" font-size="13.00">Controllers diagram</text>
<text text-anchor="start" x="253" y="-196.6" font-family="Times,serif" font-size="13.00">Date: Jan 25 2017 &#45; 09:56</text>
<text text-anchor="start" x="253" y="-182.6" font-family="Times,serif" font-size="13.00">Migration version: 20170115151953</text>
<text text-anchor="start" x="253" y="-168.6" font-family="Times,serif" font-size="13.00">Generated by RailRoady 1.5.2</text>
<text text-anchor="start" x="253" y="-154.6" font-family="Times,serif" font-size="13.00">http://railroady.prestonlee.com</text>
</g>
<!-- UsersController -->
<g id="node2" class="node"><title>UsersController</title>
<path fill="none" stroke="black" d="M-274.266,122.427C-274.266,122.427 -195.266,122.427 -195.266,122.427 -189.266,122.427 -183.266,116.427 -183.266,110.427 -183.266,110.427 -183.266,-123.573 -183.266,-123.573 -183.266,-129.573 -189.266,-135.573 -195.266,-135.573 -195.266,-135.573 -274.266,-135.573 -274.266,-135.573 -280.266,-135.573 -286.266,-129.573 -286.266,-123.573 -286.266,-123.573 -286.266,110.427 -286.266,110.427 -286.266,116.427 -280.266,122.427 -274.266,122.427"/>
<text text-anchor="middle" x="-234.766" y="-120.373" font-family="Times,serif" font-size="14.00">UsersController</text>
<polyline fill="none" stroke="black" points="-286.266,-112.573 -183.266,-112.573 "/>
<text text-anchor="start" x="-278.266" y="-97.3732" font-family="Times,serif" font-size="14.00">create</text>
<text text-anchor="start" x="-278.266" y="-82.3732" font-family="Times,serif" font-size="14.00">destroy</text>
<text text-anchor="start" x="-278.266" y="-67.3732" font-family="Times,serif" font-size="14.00">edit</text>
<text text-anchor="start" x="-278.266" y="-52.3732" font-family="Times,serif" font-size="14.00">index</text>
<text text-anchor="start" x="-278.266" y="-37.3732" font-family="Times,serif" font-size="14.00">new</text>
<text text-anchor="start" x="-278.266" y="-22.3732" font-family="Times,serif" font-size="14.00">show</text>
<text text-anchor="start" x="-278.266" y="-7.37323" font-family="Times,serif" font-size="14.00">update</text>
<polyline fill="none" stroke="black" points="-286.266,0.426773 -183.266,0.426773 "/>
<polyline fill="none" stroke="black" points="-286.266,24.4268 -183.266,24.4268 "/>
<text text-anchor="start" x="-278.266" y="39.6268" font-family="Times,serif" font-size="14.00">_layout</text>
<text text-anchor="start" x="-278.266" y="54.6268" font-family="Times,serif" font-size="14.00">admin_user</text>
<text text-anchor="start" x="-278.266" y="69.6268" font-family="Times,serif" font-size="14.00">correct_user</text>
<text text-anchor="start" x="-278.266" y="84.6268" font-family="Times,serif" font-size="14.00">logged_in_user</text>
<text text-anchor="start" x="-278.266" y="99.6268" font-family="Times,serif" font-size="14.00">require_login</text>
<text text-anchor="start" x="-278.266" y="114.627" font-family="Times,serif" font-size="14.00">user_params</text>
</g>
<!-- SessionsController -->
<g id="node3" class="node"><title>SessionsController</title>
<path fill="none" stroke="black" d="M128.1,39.328C128.1,39.328 223.1,39.328 223.1,39.328 229.1,39.328 235.1,33.328 235.1,27.328 235.1,27.328 235.1,-71.672 235.1,-71.672 235.1,-77.672 229.1,-83.672 223.1,-83.672 223.1,-83.672 128.1,-83.672 128.1,-83.672 122.1,-83.672 116.1,-77.672 116.1,-71.672 116.1,-71.672 116.1,27.328 116.1,27.328 116.1,33.328 122.1,39.328 128.1,39.328"/>
<text text-anchor="middle" x="175.6" y="-68.472" font-family="Times,serif" font-size="14.00">SessionsController</text>
<polyline fill="none" stroke="black" points="116.1,-60.672 235.1,-60.672 "/>
<text text-anchor="start" x="124.1" y="-45.472" font-family="Times,serif" font-size="14.00">create</text>
<text text-anchor="start" x="124.1" y="-30.472" font-family="Times,serif" font-size="14.00">destroy</text>
<text text-anchor="start" x="124.1" y="-15.472" font-family="Times,serif" font-size="14.00">new</text>
<polyline fill="none" stroke="black" points="116.1,-7.67204 235.1,-7.67204 "/>
<polyline fill="none" stroke="black" points="116.1,16.328 235.1,16.328 "/>
<text text-anchor="start" x="124.1" y="31.528" font-family="Times,serif" font-size="14.00">_layout</text>
</g>
<!-- StaticPagesController -->
<g id="node4" class="node"><title>StaticPagesController</title>
<path fill="none" stroke="black" d="M-80.9361,316.918C-80.9361,316.918 29.0639,316.918 29.0639,316.918 35.0639,316.918 41.0639,310.918 41.0639,304.918 41.0639,304.918 41.0639,190.918 41.0639,190.918 41.0639,184.918 35.0639,178.918 29.0639,178.918 29.0639,178.918 -80.9361,178.918 -80.9361,178.918 -86.9361,178.918 -92.9361,184.918 -92.9361,190.918 -92.9361,190.918 -92.9361,304.918 -92.9361,304.918 -92.9361,310.918 -86.9361,316.918 -80.9361,316.918"/>
<text text-anchor="middle" x="-25.9361" y="194.118" font-family="Times,serif" font-size="14.00">StaticPagesController</text>
<polyline fill="none" stroke="black" points="-92.9361,201.918 41.0639,201.918 "/>
<text text-anchor="start" x="-84.9361" y="217.118" font-family="Times,serif" font-size="14.00">about</text>
<text text-anchor="start" x="-84.9361" y="232.118" font-family="Times,serif" font-size="14.00">contact</text>
<text text-anchor="start" x="-84.9361" y="247.118" font-family="Times,serif" font-size="14.00">help</text>
<text text-anchor="start" x="-84.9361" y="262.118" font-family="Times,serif" font-size="14.00">home</text>
<polyline fill="none" stroke="black" points="-92.9361,269.918 41.0639,269.918 "/>
<polyline fill="none" stroke="black" points="-92.9361,293.918 41.0639,293.918 "/>
<text text-anchor="start" x="-84.9361" y="309.118" font-family="Times,serif" font-size="14.00">_layout</text>
</g>
<!-- AccountsController -->
<g id="node5" class="node"><title>AccountsController</title>
<path fill="none" stroke="black" d="M68.5303,-153.642C68.5303,-153.642 167.53,-153.642 167.53,-153.642 173.53,-153.642 179.53,-159.642 179.53,-165.642 179.53,-165.642 179.53,-339.642 179.53,-339.642 179.53,-345.642 173.53,-351.642 167.53,-351.642 167.53,-351.642 68.5303,-351.642 68.5303,-351.642 62.5303,-351.642 56.5303,-345.642 56.5303,-339.642 56.5303,-339.642 56.5303,-165.642 56.5303,-165.642 56.5303,-159.642 62.5303,-153.642 68.5303,-153.642"/>
<text text-anchor="middle" x="118.03" y="-336.442" font-family="Times,serif" font-size="14.00">AccountsController</text>
<polyline fill="none" stroke="black" points="56.5303,-328.642 179.53,-328.642 "/>
<text text-anchor="start" x="64.5303" y="-313.442" font-family="Times,serif" font-size="14.00">create</text>
<text text-anchor="start" x="64.5303" y="-298.442" font-family="Times,serif" font-size="14.00">destroy</text>
<text text-anchor="start" x="64.5303" y="-283.442" font-family="Times,serif" font-size="14.00">edit</text>
<text text-anchor="start" x="64.5303" y="-268.442" font-family="Times,serif" font-size="14.00">index</text>
<text text-anchor="start" x="64.5303" y="-253.442" font-family="Times,serif" font-size="14.00">new</text>
<text text-anchor="start" x="64.5303" y="-238.442" font-family="Times,serif" font-size="14.00">update</text>
<polyline fill="none" stroke="black" points="56.5303,-230.642 179.53,-230.642 "/>
<polyline fill="none" stroke="black" points="56.5303,-206.642 179.53,-206.642 "/>
<text text-anchor="start" x="64.5303" y="-191.442" font-family="Times,serif" font-size="14.00">_layout</text>
<text text-anchor="start" x="64.5303" y="-176.442" font-family="Times,serif" font-size="14.00">account_params</text>
<text text-anchor="start" x="64.5303" y="-161.442" font-family="Times,serif" font-size="14.00">require_login</text>
</g>
<!-- ApplicationController -->
<g id="node6" class="node"><title>ApplicationController</title>
<path fill="none" stroke="black" d="M-84.8174,35.3601C-84.8174,35.3601 27.1826,35.3601 27.1826,35.3601 33.1826,35.3601 39.1826,29.3601 39.1826,23.3601 39.1826,23.3601 39.1826,-46.6399 39.1826,-46.6399 39.1826,-52.6399 33.1826,-58.6399 27.1826,-58.6399 27.1826,-58.6399 -84.8174,-58.6399 -84.8174,-58.6399 -90.8174,-58.6399 -96.8174,-52.6399 -96.8174,-46.6399 -96.8174,-46.6399 -96.8174,23.3601 -96.8174,23.3601 -96.8174,29.3601 -90.8174,35.3601 -84.8174,35.3601"/>
<text text-anchor="middle" x="-28.8174" y="-43.4399" font-family="Times,serif" font-size="14.00">ApplicationController</text>
<polyline fill="none" stroke="black" points="-96.8174,-35.6399 39.1826,-35.6399 "/>
<polyline fill="none" stroke="black" points="-96.8174,-11.6399 39.1826,-11.6399 "/>
<polyline fill="none" stroke="black" points="-96.8174,12.3601 39.1826,12.3601 "/>
<text text-anchor="start" x="-88.8174" y="27.5601" font-family="Times,serif" font-size="14.00">_layout</text>
</g>
<!-- ApplicationController&#45;&gt;UsersController -->
<g id="edge1" class="edge"><title>ApplicationController&#45;&gt;UsersController</title>
<path fill="none" stroke="black" d="M-96.8234,-9.96681C-124.943,-9.27503 -157.01,-8.48614 -183.145,-7.84317"/>
</g>
<!-- ApplicationController&#45;&gt;SessionsController -->
<g id="edge2" class="edge"><title>ApplicationController&#45;&gt;SessionsController</title>
<path fill="none" stroke="black" d="M39.2506,-15.1469C64.1052,-16.4275 92.0028,-17.8649 116.058,-19.1042"/>
</g>
<!-- ApplicationController&#45;&gt;StaticPagesController -->
<g id="edge3" class="edge"><title>ApplicationController&#45;&gt;StaticPagesController</title>
<path fill="none" stroke="black" d="M-28.2956,35.3641C-27.8513,75.3924 -27.2068,133.452 -26.7036,178.779"/>
</g>
<!-- ApplicationController&#45;&gt;AccountsController -->
<g id="edge4" class="edge"><title>ApplicationController&#45;&gt;AccountsController</title>
<path fill="none" stroke="black" d="M-0.155081,-58.6796C16.288,-85.6656 37.5743,-120.6 57.5426,-153.371"/>
</g>
<!-- HistoryMovementsController -->
<g id="node7" class="node"><title>HistoryMovementsController</title>
<path fill="none" stroke="black" d="M-262.999,-170.325C-262.999,-170.325 -108.999,-170.325 -108.999,-170.325 -102.999,-170.325 -96.9994,-176.325 -96.9994,-182.325 -96.9994,-182.325 -96.9994,-311.325 -96.9994,-311.325 -96.9994,-317.325 -102.999,-323.325 -108.999,-323.325 -108.999,-323.325 -262.999,-323.325 -262.999,-323.325 -268.999,-323.325 -274.999,-317.325 -274.999,-311.325 -274.999,-311.325 -274.999,-182.325 -274.999,-182.325 -274.999,-176.325 -268.999,-170.325 -262.999,-170.325"/>
<text text-anchor="middle" x="-185.999" y="-308.125" font-family="Times,serif" font-size="14.00">HistoryMovementsController</text>
<polyline fill="none" stroke="black" points="-274.999,-300.325 -96.9994,-300.325 "/>
<text text-anchor="start" x="-266.999" y="-285.125" font-family="Times,serif" font-size="14.00">current_record</text>
<text text-anchor="start" x="-266.999" y="-270.125" font-family="Times,serif" font-size="14.00">download</text>
<text text-anchor="start" x="-266.999" y="-255.125" font-family="Times,serif" font-size="14.00">previous_record</text>
<text text-anchor="start" x="-266.999" y="-240.125" font-family="Times,serif" font-size="14.00">show</text>
<polyline fill="none" stroke="black" points="-274.999,-232.325 -96.9994,-232.325 "/>
<polyline fill="none" stroke="black" points="-274.999,-208.325 -96.9994,-208.325 "/>
<text text-anchor="start" x="-266.999" y="-193.125" font-family="Times,serif" font-size="14.00">_layout</text>
<text text-anchor="start" x="-266.999" y="-178.125" font-family="Times,serif" font-size="14.00">require_login</text>
</g>
<!-- ApplicationController&#45;&gt;HistoryMovementsController -->
<g id="edge5" class="edge"><title>ApplicationController&#45;&gt;HistoryMovementsController</title>
<path fill="none" stroke="black" d="M-60.2477,-58.6678C-81.57,-90.5714 -110.242,-133.472 -134.823,-170.251"/>
</g>
<!-- CategoriesController -->
<g id="node8" class="node"><title>CategoriesController</title>
<path fill="none" stroke="black" d="M-281.567,342.621C-281.567,342.621 -175.567,342.621 -175.567,342.621 -169.567,342.621 -163.567,336.621 -163.567,330.621 -163.567,330.621 -163.567,156.621 -163.567,156.621 -163.567,150.621 -169.567,144.621 -175.567,144.621 -175.567,144.621 -281.567,144.621 -281.567,144.621 -287.567,144.621 -293.567,150.621 -293.567,156.621 -293.567,156.621 -293.567,330.621 -293.567,330.621 -293.567,336.621 -287.567,342.621 -281.567,342.621"/>
<text text-anchor="middle" x="-228.567" y="159.821" font-family="Times,serif" font-size="14.00">CategoriesController</text>
<polyline fill="none" stroke="black" points="-293.567,167.621 -163.567,167.621 "/>
<text text-anchor="start" x="-285.567" y="182.821" font-family="Times,serif" font-size="14.00">create</text>
<text text-anchor="start" x="-285.567" y="197.821" font-family="Times,serif" font-size="14.00">destroy</text>
<text text-anchor="start" x="-285.567" y="212.821" font-family="Times,serif" font-size="14.00">edit</text>
<text text-anchor="start" x="-285.567" y="227.821" font-family="Times,serif" font-size="14.00">index</text>
<text text-anchor="start" x="-285.567" y="242.821" font-family="Times,serif" font-size="14.00">new</text>
<text text-anchor="start" x="-285.567" y="257.821" font-family="Times,serif" font-size="14.00">update</text>
<polyline fill="none" stroke="black" points="-293.567,265.621 -163.567,265.621 "/>
<polyline fill="none" stroke="black" points="-293.567,289.621 -163.567,289.621 "/>
<text text-anchor="start" x="-285.567" y="304.821" font-family="Times,serif" font-size="14.00">_layout</text>
<text text-anchor="start" x="-285.567" y="319.821" font-family="Times,serif" font-size="14.00">category_params</text>
<text text-anchor="start" x="-285.567" y="334.821" font-family="Times,serif" font-size="14.00">require_login</text>
</g>
<!-- ApplicationController&#45;&gt;CategoriesController -->
<g id="edge6" class="edge"><title>ApplicationController&#45;&gt;CategoriesController</title>
<path fill="none" stroke="black" d="M-65.6873,35.4763C-93.0237,70.4096 -131.004,118.944 -163.413,160.36"/>
</g>
<!-- MovementsController -->
<g id="node9" class="node"><title>MovementsController</title>
<path fill="none" stroke="black" d="M115.019,334.555C115.019,334.555 228.019,334.555 228.019,334.555 234.019,334.555 240.019,328.555 240.019,322.555 240.019,322.555 240.019,148.555 240.019,148.555 240.019,142.555 234.019,136.555 228.019,136.555 228.019,136.555 115.019,136.555 115.019,136.555 109.019,136.555 103.019,142.555 103.019,148.555 103.019,148.555 103.019,322.555 103.019,322.555 103.019,328.555 109.019,334.555 115.019,334.555"/>
<text text-anchor="middle" x="171.519" y="151.755" font-family="Times,serif" font-size="14.00">MovementsController</text>
<polyline fill="none" stroke="black" points="103.019,159.555 240.019,159.555 "/>
<text text-anchor="start" x="111.019" y="174.755" font-family="Times,serif" font-size="14.00">add_movement_child</text>
<text text-anchor="start" x="111.019" y="189.755" font-family="Times,serif" font-size="14.00">create</text>
<text text-anchor="start" x="111.019" y="204.755" font-family="Times,serif" font-size="14.00">create_clone</text>
<text text-anchor="start" x="111.019" y="219.755" font-family="Times,serif" font-size="14.00">destroy</text>
<text text-anchor="start" x="111.019" y="234.755" font-family="Times,serif" font-size="14.00">edit</text>
<text text-anchor="start" x="111.019" y="249.755" font-family="Times,serif" font-size="14.00">index</text>
<text text-anchor="start" x="111.019" y="264.755" font-family="Times,serif" font-size="14.00">new</text>
<text text-anchor="start" x="111.019" y="279.755" font-family="Times,serif" font-size="14.00">update</text>
<polyline fill="none" stroke="black" points="103.019,287.555 240.019,287.555 "/>
<polyline fill="none" stroke="black" points="103.019,311.555 240.019,311.555 "/>
<text text-anchor="start" x="111.019" y="326.755" font-family="Times,serif" font-size="14.00">_layout</text>
</g>
<!-- ApplicationController&#45;&gt;MovementsController -->
<g id="edge7" class="edge"><title>ApplicationController&#45;&gt;MovementsController</title>
<path fill="none" stroke="black" d="M9.33584,35.4375C35.674,67.9362 71.443,112.072 102.688,150.625"/>
</g>
</g>
</svg>
