<?xml version="1.0" encoding="UTF-8" standalone="no"?>
<!DOCTYPE svg PUBLIC "-//W3C//DTD SVG 1.1//EN"
 "http://www.w3.org/Graphics/SVG/1.1/DTD/svg11.dtd">
<!-- Generated by graphviz version 2.38.0 (20140413.2041)
 -->
<!-- Title: models_diagram Pages: 1 -->
<svg width="694pt" height="694pt"
 viewBox="0.00 0.00 693.50 694.00" xmlns="http://www.w3.org/2000/svg" xmlns:xlink="http://www.w3.org/1999/xlink">
<g id="graph0" class="graph" transform="scale(1 1) rotate(0) translate(4 690)">
<title>models_diagram</title>
<polygon fill="none" stroke="none" points="-4,4 -4,-690 689.5,-690 689.5,4 -4,4"/>
<!-- _diagram_info -->
<g id="node1" class="node"><title>_diagram_info</title>
<text text-anchor="start" x="8" y="-664.6" font-family="Times,serif" font-size="13.00">Models diagram</text>
<text text-anchor="start" x="8" y="-650.6" font-family="Times,serif" font-size="13.00">Date: Jan 19 2017 &#45; 12:51</text>
<text text-anchor="start" x="8" y="-636.6" font-family="Times,serif" font-size="13.00">Migration version: 20170115151953</text>
<text text-anchor="start" x="8" y="-622.6" font-family="Times,serif" font-size="13.00">Generated by RailRoady 1.5.2</text>
<text text-anchor="start" x="8" y="-608.6" font-family="Times,serif" font-size="13.00">http://railroady.prestonlee.com</text>
</g>
<!-- Category -->
<g id="node2" class="node"><title>Category</title>
<path fill="none" stroke="black" d="M92,-429C92,-429 204,-429 204,-429 210,-429 216,-435 216,-441 216,-441 216,-523 216,-523 216,-529 210,-535 204,-535 204,-535 92,-535 92,-535 86,-535 80,-529 80,-523 80,-523 80,-441 80,-441 80,-435 86,-429 92,-429"/>
<text text-anchor="middle" x="148" y="-519.8" font-family="Times,serif" font-size="14.00">Category</text>
<polyline fill="none" stroke="black" points="80,-512 216,-512 "/>
<text text-anchor="start" x="88" y="-496.8" font-family="Times,serif" font-size="14.00">id :INTEGER</text>
<text text-anchor="start" x="88" y="-481.8" font-family="Times,serif" font-size="14.00">name :varchar</text>
<text text-anchor="start" x="88" y="-466.8" font-family="Times,serif" font-size="14.00">classification :varchar</text>
<text text-anchor="start" x="88" y="-451.8" font-family="Times,serif" font-size="14.00">created_at :datetime</text>
<text text-anchor="start" x="88" y="-436.8" font-family="Times,serif" font-size="14.00">updated_at :datetime</text>
</g>
<!-- Movement -->
<g id="node6" class="node"><title>Movement</title>
<path fill="none" stroke="black" d="M173,-158.5C173,-158.5 315,-158.5 315,-158.5 321,-158.5 327,-164.5 327,-170.5 327,-170.5 327,-357.5 327,-357.5 327,-363.5 321,-369.5 315,-369.5 315,-369.5 173,-369.5 173,-369.5 167,-369.5 161,-363.5 161,-357.5 161,-357.5 161,-170.5 161,-170.5 161,-164.5 167,-158.5 173,-158.5"/>
<text text-anchor="middle" x="244" y="-354.3" font-family="Times,serif" font-size="14.00">Movement</text>
<polyline fill="none" stroke="black" points="161,-346.5 327,-346.5 "/>
<text text-anchor="start" x="169" y="-331.3" font-family="Times,serif" font-size="14.00">id :INTEGER</text>
<text text-anchor="start" x="169" y="-316.3" font-family="Times,serif" font-size="14.00">user_id :integer</text>
<text text-anchor="start" x="169" y="-301.3" font-family="Times,serif" font-size="14.00">account_id :integer</text>
<text text-anchor="start" x="169" y="-286.3" font-family="Times,serif" font-size="14.00">concepto_de_pago :varchar</text>
<text text-anchor="start" x="169" y="-271.3" font-family="Times,serif" font-size="14.00">reference :varchar</text>
<text text-anchor="start" x="169" y="-256.3" font-family="Times,serif" font-size="14.00">date :date</text>
<text text-anchor="start" x="169" y="-241.3" font-family="Times,serif" font-size="14.00">detail :varchar</text>
<text text-anchor="start" x="169" y="-226.3" font-family="Times,serif" font-size="14.00">category_id :integer</text>
<text text-anchor="start" x="169" y="-211.3" font-family="Times,serif" font-size="14.00">withdrawal :float</text>
<text text-anchor="start" x="169" y="-196.3" font-family="Times,serif" font-size="14.00">deposit :float</text>
<text text-anchor="start" x="169" y="-181.3" font-family="Times,serif" font-size="14.00">created_at :datetime</text>
<text text-anchor="start" x="169" y="-166.3" font-family="Times,serif" font-size="14.00">updated_at :datetime</text>
</g>
<!-- Category&#45;&gt;Movement -->
<g id="edge1" class="edge"><title>Category&#45;&gt;Movement</title>
<path fill="none" stroke="#85b36f" d="M174.559,-421.243C180.48,-407.92 186.949,-393.365 193.481,-378.669"/>
<ellipse fill="none" stroke="#85b36f" cx="172.741" cy="-425.332" rx="4.00002" ry="4.00002"/>
<polygon fill="#85b36f" stroke="#85b36f" points="193.49,-378.648 201.663,-371.338 195.52,-374.079 197.551,-369.51 197.551,-369.51 197.551,-369.51 195.52,-374.079 193.439,-367.683 193.49,-378.648 193.49,-378.648"/>
</g>
<!-- MovementParent -->
<g id="node3" class="node"><title>MovementParent</title>
<path fill="none" stroke="black" d="M187.5,-0.5C187.5,-0.5 300.5,-0.5 300.5,-0.5 306.5,-0.5 312.5,-6.5 312.5,-12.5 312.5,-12.5 312.5,-109.5 312.5,-109.5 312.5,-115.5 306.5,-121.5 300.5,-121.5 300.5,-121.5 187.5,-121.5 187.5,-121.5 181.5,-121.5 175.5,-115.5 175.5,-109.5 175.5,-109.5 175.5,-12.5 175.5,-12.5 175.5,-6.5 181.5,-0.5 187.5,-0.5"/>
<text text-anchor="middle" x="244" y="-106.3" font-family="Times,serif" font-size="14.00">MovementParent</text>
<polyline fill="none" stroke="black" points="175.5,-98.5 312.5,-98.5 "/>
<text text-anchor="start" x="183.5" y="-83.3" font-family="Times,serif" font-size="14.00">id :INTEGER</text>
<text text-anchor="start" x="183.5" y="-68.3" font-family="Times,serif" font-size="14.00">movement_id :integer</text>
<text text-anchor="start" x="183.5" y="-53.3" font-family="Times,serif" font-size="14.00">child_id :integer</text>
<text text-anchor="start" x="183.5" y="-38.3" font-family="Times,serif" font-size="14.00">parent :boolean</text>
<text text-anchor="start" x="183.5" y="-23.3" font-family="Times,serif" font-size="14.00">created_at :datetime</text>
<text text-anchor="start" x="183.5" y="-8.3" font-family="Times,serif" font-size="14.00">updated_at :datetime</text>
</g>
<!-- ApplicationRecord -->
<g id="node4" class="node"><title>ApplicationRecord</title>
<ellipse fill="none" stroke="black" cx="459" cy="-640" rx="77.1866" ry="18"/>
<text text-anchor="middle" x="459" y="-636.3" font-family="Times,serif" font-size="14.00">ApplicationRecord</text>
</g>
<!-- Account -->
<g id="node5" class="node"><title>Account</title>
<path fill="none" stroke="black" d="M244.5,-594.5C244.5,-594.5 351.5,-594.5 351.5,-594.5 357.5,-594.5 363.5,-600.5 363.5,-606.5 363.5,-606.5 363.5,-673.5 363.5,-673.5 363.5,-679.5 357.5,-685.5 351.5,-685.5 351.5,-685.5 244.5,-685.5 244.5,-685.5 238.5,-685.5 232.5,-679.5 232.5,-673.5 232.5,-673.5 232.5,-606.5 232.5,-606.5 232.5,-600.5 238.5,-594.5 244.5,-594.5"/>
<text text-anchor="middle" x="298" y="-670.3" font-family="Times,serif" font-size="14.00">Account</text>
<polyline fill="none" stroke="black" points="232.5,-662.5 363.5,-662.5 "/>
<text text-anchor="start" x="240.5" y="-647.3" font-family="Times,serif" font-size="14.00">id :INTEGER</text>
<text text-anchor="start" x="240.5" y="-632.3" font-family="Times,serif" font-size="14.00">name :varchar</text>
<text text-anchor="start" x="240.5" y="-617.3" font-family="Times,serif" font-size="14.00">created_at :datetime</text>
<text text-anchor="start" x="240.5" y="-602.3" font-family="Times,serif" font-size="14.00">updated_at :datetime</text>
</g>
<!-- Account&#45;&gt;Movement -->
<g id="edge2" class="edge"><title>Account&#45;&gt;Movement</title>
<path fill="none" stroke="#b272d3" d="M272.327,-586.703C268.622,-577.334 265.292,-567.519 263,-558 249.097,-500.265 243.913,-434.399 242.392,-379.76"/>
<ellipse fill="none" stroke="#b272d3" cx="273.848" cy="-590.408" rx="4.00002" ry="4.00002"/>
<polygon fill="#b272d3" stroke="#b272d3" points="242.39,-379.689 246.648,-369.584 242.269,-374.691 242.149,-369.692 242.149,-369.692 242.149,-369.692 242.269,-374.691 237.65,-369.801 242.39,-379.689 242.39,-379.689"/>
</g>
<!-- User -->
<g id="node7" class="node"><title>User</title>
<path fill="none" stroke="black" d="M284,-406.5C284,-406.5 420,-406.5 420,-406.5 426,-406.5 432,-412.5 432,-418.5 432,-418.5 432,-545.5 432,-545.5 432,-551.5 426,-557.5 420,-557.5 420,-557.5 284,-557.5 284,-557.5 278,-557.5 272,-551.5 272,-545.5 272,-545.5 272,-418.5 272,-418.5 272,-412.5 278,-406.5 284,-406.5"/>
<text text-anchor="middle" x="352" y="-542.3" font-family="Times,serif" font-size="14.00">User</text>
<polyline fill="none" stroke="black" points="272,-534.5 432,-534.5 "/>
<text text-anchor="start" x="280" y="-519.3" font-family="Times,serif" font-size="14.00">id :INTEGER</text>
<text text-anchor="start" x="280" y="-504.3" font-family="Times,serif" font-size="14.00">name :varchar</text>
<text text-anchor="start" x="280" y="-489.3" font-family="Times,serif" font-size="14.00">email :varchar</text>
<text text-anchor="start" x="280" y="-474.3" font-family="Times,serif" font-size="14.00">created_at :datetime</text>
<text text-anchor="start" x="280" y="-459.3" font-family="Times,serif" font-size="14.00">updated_at :datetime</text>
<text text-anchor="start" x="280" y="-444.3" font-family="Times,serif" font-size="14.00">password_digest :varchar</text>
<text text-anchor="start" x="280" y="-429.3" font-family="Times,serif" font-size="14.00">remember_digest :varchar</text>
<text text-anchor="start" x="280" y="-414.3" font-family="Times,serif" font-size="14.00">admin :boolean</text>
</g>
<!-- Account&#45;&gt;User -->
<g id="edge3" class="edge"><title>Account&#45;&gt;User</title>
<path fill="none" stroke="#bf0a8f" d="M316.803,-584.68C318.734,-579.103 320.726,-573.348 322.735,-567.544"/>
<polygon fill="#bf0a8f" stroke="#bf0a8f" points="316.745,-584.847 309.222,-592.825 315.11,-589.572 313.474,-594.297 313.474,-594.297 313.474,-594.297 315.11,-589.572 317.727,-595.769 316.745,-584.847 316.745,-584.847"/>
<polygon fill="#bf0a8f" stroke="#bf0a8f" points="322.852,-567.204 330.376,-559.226 324.488,-562.479 326.124,-557.754 326.124,-557.754 326.124,-557.754 324.488,-562.479 321.871,-556.282 322.852,-567.204 322.852,-567.204"/>
</g>
<!-- Movement&#45;&gt;MovementParent -->
<g id="edge4" class="edge"><title>Movement&#45;&gt;MovementParent</title>
<path fill="none" stroke="#5c0876" d="M244,-150.137C244,-144.025 244,-137.976 244,-132.081"/>
<ellipse fill="none" stroke="#5c0876" cx="244" cy="-154.379" rx="4" ry="4"/>
<polygon fill="#5c0876" stroke="#5c0876" points="244,-131.656 248.5,-121.656 244,-126.656 244,-121.656 244,-121.656 244,-121.656 244,-126.656 239.5,-121.656 244,-131.656 244,-131.656"/>
</g>
<!-- User&#45;&gt;Movement -->
<g id="edge5" class="edge"><title>User&#45;&gt;Movement</title>
<path fill="none" stroke="#315a2b" d="M311.043,-399.087C307.745,-392.49 304.377,-385.754 300.994,-378.987"/>
<ellipse fill="none" stroke="#315a2b" cx="312.892" cy="-402.785" rx="4.00002" ry="4.00002"/>
<polygon fill="#315a2b" stroke="#315a2b" points="300.847,-378.695 300.4,-367.738 298.611,-374.223 296.375,-369.75 296.375,-369.75 296.375,-369.75 298.611,-374.223 292.35,-371.763 300.847,-378.695 300.847,-378.695"/>
</g>
<!-- HistoryMovement -->
<g id="node8" class="node"><title>HistoryMovement</title>
<path fill="none" stroke="black" d="M566.5,-602C566.5,-602 673.5,-602 673.5,-602 679.5,-602 685.5,-608 685.5,-614 685.5,-614 685.5,-666 685.5,-666 685.5,-672 679.5,-678 673.5,-678 673.5,-678 566.5,-678 566.5,-678 560.5,-678 554.5,-672 554.5,-666 554.5,-666 554.5,-614 554.5,-614 554.5,-608 560.5,-602 566.5,-602"/>
<text text-anchor="middle" x="620" y="-662.8" font-family="Times,serif" font-size="14.00">HistoryMovement</text>
<polyline fill="none" stroke="black" points="554.5,-655 685.5,-655 "/>
<text text-anchor="start" x="562.5" y="-639.8" font-family="Times,serif" font-size="14.00">id :INTEGER</text>
<text text-anchor="start" x="562.5" y="-624.8" font-family="Times,serif" font-size="14.00">created_at :datetime</text>
<text text-anchor="start" x="562.5" y="-609.8" font-family="Times,serif" font-size="14.00">updated_at :datetime</text>
</g>
</g>
</svg>
