<?xml version="1.0" encoding="UTF-8" standalone="no"?>
<!DOCTYPE svg PUBLIC "-//W3C//DTD SVG 1.1//EN"
 "http://www.w3.org/Graphics/SVG/1.1/DTD/svg11.dtd">
<!-- Generated by graphviz version 2.38.0 (20140413.2041)
 -->
<!-- Title: models_diagram Pages: 1 -->
<svg width="663pt" height="302pt"
 viewBox="0.00 0.00 663.04 302.00" xmlns="http://www.w3.org/2000/svg" xmlns:xlink="http://www.w3.org/1999/xlink">
<g id="graph0" class="graph" transform="scale(1 1) rotate(0) translate(4 298)">
<title>models_diagram</title>
<polygon fill="none" stroke="none" points="-4,4 -4,-298 659.043,-298 659.043,4 -4,4"/>
<!-- _diagram_info -->
<g id="node1" class="node"><title>_diagram_info</title>
<text text-anchor="start" x="8" y="-279.6" font-family="Times,serif" font-size="13.00">Models diagram</text>
<text text-anchor="start" x="8" y="-265.6" font-family="Times,serif" font-size="13.00">Date: Jan 19 2017 &#45; 12:51</text>
<text text-anchor="start" x="8" y="-251.6" font-family="Times,serif" font-size="13.00">Migration version: 20170115151953</text>
<text text-anchor="start" x="8" y="-237.6" font-family="Times,serif" font-size="13.00">Generated by RailRoady 1.5.2</text>
<text text-anchor="start" x="8" y="-223.6" font-family="Times,serif" font-size="13.00">http://railroady.prestonlee.com</text>
</g>
<!-- Category -->
<g id="node2" class="node"><title>Category</title>
<ellipse fill="none" stroke="black" cx="173" cy="-162" rx="42.7926" ry="18"/>
<text text-anchor="middle" x="173" y="-158.3" font-family="Times,serif" font-size="14.00">Category</text>
</g>
<!-- Movement -->
<g id="node6" class="node"><title>Movement</title>
<ellipse fill="none" stroke="black" cx="244" cy="-90" rx="50.0912" ry="18"/>
<text text-anchor="middle" x="244" y="-86.3" font-family="Times,serif" font-size="14.00">Movement</text>
</g>
<!-- Category&#45;&gt;Movement -->
<g id="edge1" class="edge"><title>Category&#45;&gt;Movement</title>
<path fill="none" stroke="#eb5c51" d="M195.029,-139.281C203.045,-131.378 212.137,-122.414 220.292,-114.374"/>
<ellipse fill="none" stroke="#eb5c51" cx="191.959" cy="-142.308" rx="4.00002" ry="4.00002"/>
<polygon fill="#eb5c51" stroke="#eb5c51" points="220.339,-114.328 230.619,-110.511 223.9,-110.817 227.46,-107.307 227.46,-107.307 227.46,-107.307 223.9,-110.817 224.301,-104.103 220.339,-114.328 220.339,-114.328"/>
</g>
<!-- MovementParent -->
<g id="node3" class="node"><title>MovementParent</title>
<ellipse fill="none" stroke="black" cx="244" cy="-18" rx="72.2875" ry="18"/>
<text text-anchor="middle" x="244" y="-14.3" font-family="Times,serif" font-size="14.00">MovementParent</text>
</g>
<!-- ApplicationRecord -->
<g id="node4" class="node"><title>ApplicationRecord</title>
<ellipse fill="none" stroke="black" cx="408" cy="-255" rx="77.1866" ry="18"/>
<text text-anchor="middle" x="408" y="-251.3" font-family="Times,serif" font-size="14.00">ApplicationRecord</text>
</g>
<!-- Account -->
<g id="node5" class="node"><title>Account</title>
<ellipse fill="none" stroke="black" cx="272" cy="-255" rx="40.0939" ry="18"/>
<text text-anchor="middle" x="272" y="-251.3" font-family="Times,serif" font-size="14.00">Account</text>
</g>
<!-- Account&#45;&gt;Movement -->
<g id="edge2" class="edge"><title>Account&#45;&gt;Movement</title>
<path fill="none" stroke="#a8f5d9" d="M267.696,-228.945C262.567,-199.085 254.025,-149.36 248.719,-118.473"/>
<ellipse fill="none" stroke="#a8f5d9" cx="268.379" cy="-232.922" rx="4.00001" ry="4.00001"/>
<polygon fill="#a8f5d9" stroke="#a8f5d9" points="248.681,-118.252 251.423,-107.635 247.835,-113.325 246.988,-108.397 246.988,-108.397 246.988,-108.397 247.835,-113.325 242.553,-109.159 248.681,-118.252 248.681,-118.252"/>
</g>
<!-- User -->
<g id="node7" class="node"><title>User</title>
<ellipse fill="none" stroke="black" cx="299" cy="-162" rx="27.0966" ry="18"/>
<text text-anchor="middle" x="299" y="-158.3" font-family="Times,serif" font-size="14.00">User</text>
</g>
<!-- Account&#45;&gt;User -->
<g id="edge3" class="edge"><title>Account&#45;&gt;User</title>
<path fill="none" stroke="#7db3b8" d="M280.034,-226.922C283.55,-215.073 287.66,-201.218 291.154,-189.443"/>
<polygon fill="#7db3b8" stroke="#7db3b8" points="279.923,-227.297 272.764,-235.604 278.501,-232.09 277.078,-236.884 277.078,-236.884 277.078,-236.884 278.501,-232.09 281.393,-238.164 279.923,-227.297 279.923,-227.297"/>
<polygon fill="#7db3b8" stroke="#7db3b8" points="291.191,-189.319 298.35,-181.012 292.613,-184.526 294.036,-179.732 294.036,-179.732 294.036,-179.732 292.613,-184.526 289.721,-178.452 291.191,-189.319 291.191,-189.319"/>
</g>
<!-- Movement&#45;&gt;MovementParent -->
<g id="edge4" class="edge"><title>Movement&#45;&gt;MovementParent</title>
<path fill="none" stroke="#e0a41d" d="M244,-63.6398C244,-58.0629 244,-52.1319 244,-46.4761"/>
<ellipse fill="none" stroke="#e0a41d" cx="244" cy="-67.6966" rx="4" ry="4"/>
<polygon fill="#e0a41d" stroke="#e0a41d" points="244,-46.1043 248.5,-36.1043 244,-41.1043 244,-36.1043 244,-36.1043 244,-36.1043 244,-41.1043 239.5,-36.1044 244,-46.1043 244,-46.1043"/>
</g>
<!-- User&#45;&gt;Movement -->
<g id="edge5" class="edge"><title>User&#45;&gt;Movement</title>
<path fill="none" stroke="#440e1d" d="M282.022,-139.392C276.119,-131.879 269.454,-123.396 263.372,-115.655"/>
<ellipse fill="none" stroke="#440e1d" cx="284.595" cy="-142.666" rx="4.00002" ry="4.00002"/>
<polygon fill="#440e1d" stroke="#440e1d" points="263.243,-115.491 260.603,-104.848 260.154,-111.559 257.065,-107.628 257.065,-107.628 257.065,-107.628 260.154,-111.559 253.526,-110.408 263.243,-115.491 263.243,-115.491"/>
</g>
<!-- HistoryMovement -->
<g id="node8" class="node"><title>HistoryMovement</title>
<ellipse fill="none" stroke="black" cx="579" cy="-255" rx="76.0865" ry="18"/>
<text text-anchor="middle" x="579" y="-251.3" font-family="Times,serif" font-size="14.00">HistoryMovement</text>
</g>
</g>
</svg>
