<?xml version="1.0" encoding="UTF-8" standalone="no"?>
<!DOCTYPE svg PUBLIC "-//W3C//DTD SVG 1.1//EN"
 "http://www.w3.org/Graphics/SVG/1.1/DTD/svg11.dtd">
<!-- Generated by graphviz version 2.38.0 (20140413.2041)
 -->
<!-- Title: models_diagram Pages: 1 -->
<svg width="534pt" height="808pt"
 viewBox="0.00 0.00 533.50 808.00" xmlns="http://www.w3.org/2000/svg" xmlns:xlink="http://www.w3.org/1999/xlink">
<g id="graph0" class="graph" transform="scale(1 1) rotate(0) translate(4 804)">
<title>models_diagram</title>
<polygon fill="none" stroke="none" points="-4,4 -4,-804 529.5,-804 529.5,4 -4,4"/>
<!-- _diagram_info -->
<g id="node1" class="node"><title>_diagram_info</title>
<text text-anchor="start" x="8" y="-785.6" font-family="Times,serif" font-size="13.00">Models diagram</text>
<text text-anchor="start" x="8" y="-771.6" font-family="Times,serif" font-size="13.00">Date: Jan 25 2017 &#45; 09:56</text>
<text text-anchor="start" x="8" y="-757.6" font-family="Times,serif" font-size="13.00">Migration version: 20170115151953</text>
<text text-anchor="start" x="8" y="-743.6" font-family="Times,serif" font-size="13.00">Generated by RailRoady 1.5.2</text>
<text text-anchor="start" x="8" y="-729.6" font-family="Times,serif" font-size="13.00">http://railroady.prestonlee.com</text>
</g>
<!-- Category -->
<g id="node2" class="node"><title>Category</title>
<path fill="none" stroke="black" d="M368,-429C368,-429 480,-429 480,-429 486,-429 492,-435 492,-441 492,-441 492,-523 492,-523 492,-529 486,-535 480,-535 480,-535 368,-535 368,-535 362,-535 356,-529 356,-523 356,-523 356,-441 356,-441 356,-435 362,-429 368,-429"/>
<text text-anchor="middle" x="424" y="-519.8" font-family="Times,serif" font-size="14.00">Category</text>
<polyline fill="none" stroke="black" points="356,-512 492,-512 "/>
<text text-anchor="start" x="364" y="-496.8" font-family="Times,serif" font-size="14.00">id :INTEGER</text>
<text text-anchor="start" x="364" y="-481.8" font-family="Times,serif" font-size="14.00">name :varchar</text>
<text text-anchor="start" x="364" y="-466.8" font-family="Times,serif" font-size="14.00">classification :varchar</text>
<text text-anchor="start" x="364" y="-451.8" font-family="Times,serif" font-size="14.00">created_at :datetime</text>
<text text-anchor="start" x="364" y="-436.8" font-family="Times,serif" font-size="14.00">updated_at :datetime</text>
</g>
<!-- Movement -->
<g id="node6" class="node"><title>Movement</title>
<path fill="none" stroke="black" d="M149,-158.5C149,-158.5 291,-158.5 291,-158.5 297,-158.5 303,-164.5 303,-170.5 303,-170.5 303,-357.5 303,-357.5 303,-363.5 297,-369.5 291,-369.5 291,-369.5 149,-369.5 149,-369.5 143,-369.5 137,-363.5 137,-357.5 137,-357.5 137,-170.5 137,-170.5 137,-164.5 143,-158.5 149,-158.5"/>
<text text-anchor="middle" x="220" y="-354.3" font-family="Times,serif" font-size="14.00">Movement</text>
<polyline fill="none" stroke="black" points="137,-346.5 303,-346.5 "/>
<text text-anchor="start" x="145" y="-331.3" font-family="Times,serif" font-size="14.00">id :INTEGER</text>
<text text-anchor="start" x="145" y="-316.3" font-family="Times,serif" font-size="14.00">user_id :integer</text>
<text text-anchor="start" x="145" y="-301.3" font-family="Times,serif" font-size="14.00">account_id :integer</text>
<text text-anchor="start" x="145" y="-286.3" font-family="Times,serif" font-size="14.00">concepto_de_pago :varchar</text>
<text text-anchor="start" x="145" y="-271.3" font-family="Times,serif" font-size="14.00">reference :varchar</text>
<text text-anchor="start" x="145" y="-256.3" font-family="Times,serif" font-size="14.00">date :date</text>
<text text-anchor="start" x="145" y="-241.3" font-family="Times,serif" font-size="14.00">detail :varchar</text>
<text text-anchor="start" x="145" y="-226.3" font-family="Times,serif" font-size="14.00">category_id :integer</text>
<text text-anchor="start" x="145" y="-211.3" font-family="Times,serif" font-size="14.00">withdrawal :float</text>
<text text-anchor="start" x="145" y="-196.3" font-family="Times,serif" font-size="14.00">deposit :float</text>
<text text-anchor="start" x="145" y="-181.3" font-family="Times,serif" font-size="14.00">created_at :datetime</text>
<text text-anchor="start" x="145" y="-166.3" font-family="Times,serif" font-size="14.00">updated_at :datetime</text>
</g>
<!-- Category&#45;&gt;Movement -->
<g id="edge1" class="edge"><title>Category&#45;&gt;Movement</title>
<path fill="none" stroke="#9e8b3a" d="M369.253,-423.033C351.137,-403.851 330.468,-381.966 310.405,-360.723"/>
<ellipse fill="none" stroke="#9e8b3a" cx="372.131" cy="-426.08" rx="4.00002" ry="4.00002"/>
<polygon fill="#9e8b3a" stroke="#9e8b3a" points="310.205,-360.511 306.611,-350.151 306.772,-356.876 303.339,-353.241 303.339,-353.241 303.339,-353.241 306.772,-356.876 300.067,-356.331 310.205,-360.511 310.205,-360.511"/>
</g>
<!-- MovementParent -->
<g id="node3" class="node"><title>MovementParent</title>
<path fill="none" stroke="black" d="M163.5,-0.5C163.5,-0.5 276.5,-0.5 276.5,-0.5 282.5,-0.5 288.5,-6.5 288.5,-12.5 288.5,-12.5 288.5,-109.5 288.5,-109.5 288.5,-115.5 282.5,-121.5 276.5,-121.5 276.5,-121.5 163.5,-121.5 163.5,-121.5 157.5,-121.5 151.5,-115.5 151.5,-109.5 151.5,-109.5 151.5,-12.5 151.5,-12.5 151.5,-6.5 157.5,-0.5 163.5,-0.5"/>
<text text-anchor="middle" x="220" y="-106.3" font-family="Times,serif" font-size="14.00">MovementParent</text>
<polyline fill="none" stroke="black" points="151.5,-98.5 288.5,-98.5 "/>
<text text-anchor="start" x="159.5" y="-83.3" font-family="Times,serif" font-size="14.00">id :INTEGER</text>
<text text-anchor="start" x="159.5" y="-68.3" font-family="Times,serif" font-size="14.00">movement_id :integer</text>
<text text-anchor="start" x="159.5" y="-53.3" font-family="Times,serif" font-size="14.00">child_id :integer</text>
<text text-anchor="start" x="159.5" y="-38.3" font-family="Times,serif" font-size="14.00">parent :boolean</text>
<text text-anchor="start" x="159.5" y="-23.3" font-family="Times,serif" font-size="14.00">created_at :datetime</text>
<text text-anchor="start" x="159.5" y="-8.3" font-family="Times,serif" font-size="14.00">updated_at :datetime</text>
</g>
<!-- MovementParent&#45;&gt;Movement -->
<g id="edge3" class="edge"><title>MovementParent&#45;&gt;Movement</title>
<path fill="none" stroke="#c5b44d" d="M226.422,-129.79C226.547,-135.842 226.637,-142.073 226.69,-148.378"/>
<ellipse fill="none" stroke="#c5b44d" cx="226.323" cy="-125.655" rx="4" ry="4"/>
<polygon fill="#c5b44d" stroke="#c5b44d" points="226.69,-148.379 222.245,-158.404 226.718,-153.379 226.745,-158.379 226.745,-158.379 226.745,-158.379 226.718,-153.379 231.245,-158.354 226.69,-148.379 226.69,-148.379"/>
</g>
<!-- ApplicationRecord -->
<g id="node4" class="node"><title>ApplicationRecord</title>
<ellipse fill="none" stroke="black" cx="309" cy="-761" rx="77.1866" ry="18"/>
<text text-anchor="middle" x="309" y="-757.3" font-family="Times,serif" font-size="14.00">ApplicationRecord</text>
</g>
<!-- ApplicationRecord&#45;&gt;Category -->
<g id="edge2" class="edge"><title>ApplicationRecord&#45;&gt;Category</title>
<path fill="none" stroke="black" d="M316.775,-743.028C323.574,-728.078 333.64,-705.68 342,-686 363.622,-635.098 387.155,-576.482 403.441,-535.363"/>
</g>
<!-- ApplicationRecord&#45;&gt;MovementParent -->
<g id="edge4" class="edge"><title>ApplicationRecord&#45;&gt;MovementParent</title>
<path fill="none" stroke="black" d="M275.762,-744.601C259.908,-737.439 240.6,-728.982 223,-722 178.314,-704.272 150.126,-724.246 121,-686 -21.1884,-499.29 33.532,-372.835 128,-158 133.715,-145.004 141.993,-132.712 151.274,-121.535"/>
</g>
<!-- Account -->
<g id="node5" class="node"><title>Account</title>
<path fill="none" stroke="black" d="M142.5,-594.5C142.5,-594.5 249.5,-594.5 249.5,-594.5 255.5,-594.5 261.5,-600.5 261.5,-606.5 261.5,-606.5 261.5,-673.5 261.5,-673.5 261.5,-679.5 255.5,-685.5 249.5,-685.5 249.5,-685.5 142.5,-685.5 142.5,-685.5 136.5,-685.5 130.5,-679.5 130.5,-673.5 130.5,-673.5 130.5,-606.5 130.5,-606.5 130.5,-600.5 136.5,-594.5 142.5,-594.5"/>
<text text-anchor="middle" x="196" y="-670.3" font-family="Times,serif" font-size="14.00">Account</text>
<polyline fill="none" stroke="black" points="130.5,-662.5 261.5,-662.5 "/>
<text text-anchor="start" x="138.5" y="-647.3" font-family="Times,serif" font-size="14.00">id :INTEGER</text>
<text text-anchor="start" x="138.5" y="-632.3" font-family="Times,serif" font-size="14.00">name :varchar</text>
<text text-anchor="start" x="138.5" y="-617.3" font-family="Times,serif" font-size="14.00">created_at :datetime</text>
<text text-anchor="start" x="138.5" y="-602.3" font-family="Times,serif" font-size="14.00">updated_at :datetime</text>
</g>
<!-- ApplicationRecord&#45;&gt;Account -->
<g id="edge7" class="edge"><title>ApplicationRecord&#45;&gt;Account</title>
<path fill="none" stroke="black" d="M293.05,-743.203C278.875,-728.275 257.502,-705.768 238.419,-685.672"/>
</g>
<!-- ApplicationRecord&#45;&gt;Movement -->
<g id="edge9" class="edge"><title>ApplicationRecord&#45;&gt;Movement</title>
<path fill="none" stroke="black" d="M312.274,-742.948C321.555,-691.037 345.112,-530.867 309,-406 305.461,-393.764 300.51,-381.569 294.736,-369.763"/>
</g>
<!-- User -->
<g id="node7" class="node"><title>User</title>
<path fill="none" stroke="black" d="M152,-406.5C152,-406.5 288,-406.5 288,-406.5 294,-406.5 300,-412.5 300,-418.5 300,-418.5 300,-545.5 300,-545.5 300,-551.5 294,-557.5 288,-557.5 288,-557.5 152,-557.5 152,-557.5 146,-557.5 140,-551.5 140,-545.5 140,-545.5 140,-418.5 140,-418.5 140,-412.5 146,-406.5 152,-406.5"/>
<text text-anchor="middle" x="220" y="-542.3" font-family="Times,serif" font-size="14.00">User</text>
<polyline fill="none" stroke="black" points="140,-534.5 300,-534.5 "/>
<text text-anchor="start" x="148" y="-519.3" font-family="Times,serif" font-size="14.00">id :INTEGER</text>
<text text-anchor="start" x="148" y="-504.3" font-family="Times,serif" font-size="14.00">name :varchar</text>
<text text-anchor="start" x="148" y="-489.3" font-family="Times,serif" font-size="14.00">email :varchar</text>
<text text-anchor="start" x="148" y="-474.3" font-family="Times,serif" font-size="14.00">created_at :datetime</text>
<text text-anchor="start" x="148" y="-459.3" font-family="Times,serif" font-size="14.00">updated_at :datetime</text>
<text text-anchor="start" x="148" y="-444.3" font-family="Times,serif" font-size="14.00">password_digest :varchar</text>
<text text-anchor="start" x="148" y="-429.3" font-family="Times,serif" font-size="14.00">remember_digest :varchar</text>
<text text-anchor="start" x="148" y="-414.3" font-family="Times,serif" font-size="14.00">admin :boolean</text>
</g>
<!-- ApplicationRecord&#45;&gt;User -->
<g id="edge11" class="edge"><title>ApplicationRecord&#45;&gt;User</title>
<path fill="none" stroke="black" d="M306.251,-742.711C301.131,-712.17 288.994,-646.901 271,-594 266.937,-582.054 262.007,-569.664 256.833,-557.683"/>
</g>
<!-- HistoryMovement -->
<g id="node8" class="node"><title>HistoryMovement</title>
<path fill="none" stroke="black" d="M406.5,-602C406.5,-602 513.5,-602 513.5,-602 519.5,-602 525.5,-608 525.5,-614 525.5,-614 525.5,-666 525.5,-666 525.5,-672 519.5,-678 513.5,-678 513.5,-678 406.5,-678 406.5,-678 400.5,-678 394.5,-672 394.5,-666 394.5,-666 394.5,-614 394.5,-614 394.5,-608 400.5,-602 406.5,-602"/>
<text text-anchor="middle" x="460" y="-662.8" font-family="Times,serif" font-size="14.00">HistoryMovement</text>
<polyline fill="none" stroke="black" points="394.5,-655 525.5,-655 "/>
<text text-anchor="start" x="402.5" y="-639.8" font-family="Times,serif" font-size="14.00">id :INTEGER</text>
<text text-anchor="start" x="402.5" y="-624.8" font-family="Times,serif" font-size="14.00">created_at :datetime</text>
<text text-anchor="start" x="402.5" y="-609.8" font-family="Times,serif" font-size="14.00">updated_at :datetime</text>
</g>
<!-- ApplicationRecord&#45;&gt;HistoryMovement -->
<g id="edge12" class="edge"><title>ApplicationRecord&#45;&gt;HistoryMovement</title>
<path fill="none" stroke="black" d="M329.996,-743.454C351.308,-726.658 385.028,-700.084 412.786,-678.209"/>
</g>
<!-- Account&#45;&gt;Movement -->
<g id="edge5" class="edge"><title>Account&#45;&gt;Movement</title>
<path fill="none" stroke="#b17d87" d="M146.713,-587.737C140.277,-578.457 134.658,-568.402 131,-558 108.591,-494.269 112.232,-470.896 131,-406 133.626,-396.919 137.031,-387.86 140.972,-378.966"/>
<ellipse fill="none" stroke="#b17d87" cx="149.173" cy="-591.117" rx="4.00002" ry="4.00002"/>
<polygon fill="#b17d87" stroke="#b17d87" points="141.038,-378.826 149.342,-371.665 143.151,-374.294 145.264,-369.763 145.264,-369.763 145.264,-369.763 143.151,-374.294 141.186,-367.861 141.038,-378.826 141.038,-378.826"/>
</g>
<!-- Account&#45;&gt;User -->
<g id="edge6" class="edge"><title>Account&#45;&gt;User</title>
<path fill="none" stroke="#7cacdd" d="M204.4,-584.399C205.229,-579.011 206.083,-573.459 206.945,-567.859"/>
<polygon fill="#7cacdd" stroke="#7cacdd" points="204.398,-584.413 198.43,-593.612 203.638,-589.355 202.877,-594.297 202.877,-594.297 202.877,-594.297 203.638,-589.355 207.325,-594.981 204.398,-584.413 204.398,-584.413"/>
<polygon fill="#7cacdd" stroke="#7cacdd" points="206.979,-567.638 212.947,-558.439 207.739,-562.696 208.499,-557.754 208.499,-557.754 208.499,-557.754 207.739,-562.696 204.052,-557.07 206.979,-567.638 206.979,-567.638"/>
</g>
<!-- Movement&#45;&gt;MovementParent -->
<g id="edge8" class="edge"><title>Movement&#45;&gt;MovementParent</title>
<path fill="none" stroke="#f5668b" d="M213.296,-150.137C213.341,-144.025 213.42,-137.976 213.533,-132.081"/>
<ellipse fill="none" stroke="#f5668b" cx="213.275" cy="-154.379" rx="4" ry="4"/>
<polygon fill="#f5668b" stroke="#f5668b" points="213.542,-131.654 218.271,-121.76 213.657,-126.655 213.772,-121.656 213.772,-121.656 213.772,-121.656 213.657,-126.655 209.273,-121.553 213.542,-131.654 213.542,-131.654"/>
</g>
<!-- User&#45;&gt;Movement -->
<g id="edge10" class="edge"><title>User&#45;&gt;Movement</title>
<path fill="none" stroke="#449c69" d="M220,-398.239C220,-392.262 220,-386.176 220,-380.059"/>
<ellipse fill="none" stroke="#449c69" cx="220" cy="-402.363" rx="4" ry="4"/>
<polygon fill="#449c69" stroke="#449c69" points="220,-379.75 224.5,-369.75 220,-374.75 220,-369.75 220,-369.75 220,-369.75 220,-374.75 215.5,-369.751 220,-379.75 220,-379.75"/>
</g>
<!-- MaterialIcon -->
<g id="node9" class="node"><title>MaterialIcon</title>
<polygon fill="none" stroke="black" points="404.5,-738 404.5,-784 491.5,-784 491.5,-738 404.5,-738"/>
<text text-anchor="middle" x="448" y="-768.8" font-family="Times,serif" font-size="14.00">MaterialIcon</text>
<polyline fill="none" stroke="black" points="404.5,-761 491.5,-761 "/>
<text text-anchor="middle" x="448" y="-745.8" font-family="Times,serif" font-size="14.00"> </text>
</g>
</g>
</svg>
