<?xml version="1.0" encoding="UTF-8" standalone="no"?>
<!DOCTYPE svg PUBLIC "-//W3C//DTD SVG 1.1//EN"
 "http://www.w3.org/Graphics/SVG/1.1/DTD/svg11.dtd">
<!-- Generated by graphviz version 2.38.0 (20140413.2041)
 -->
<!-- Title: models_diagram Pages: 1 -->
<svg width="554pt" height="374pt"
 viewBox="0.00 0.00 554.04 374.00" xmlns="http://www.w3.org/2000/svg" xmlns:xlink="http://www.w3.org/1999/xlink">
<g id="graph0" class="graph" transform="scale(1 1) rotate(0) translate(4 370)">
<title>models_diagram</title>
<polygon fill="none" stroke="none" points="-4,4 -4,-370 550.043,-370 550.043,4 -4,4"/>
<!-- _diagram_info -->
<g id="node1" class="node"><title>_diagram_info</title>
<text text-anchor="start" x="8" y="-351.6" font-family="Times,serif" font-size="13.00">Models diagram</text>
<text text-anchor="start" x="8" y="-337.6" font-family="Times,serif" font-size="13.00">Date: Jan 25 2017 &#45; 09:56</text>
<text text-anchor="start" x="8" y="-323.6" font-family="Times,serif" font-size="13.00">Migration version: 20170115151953</text>
<text text-anchor="start" x="8" y="-309.6" font-family="Times,serif" font-size="13.00">Generated by RailRoady 1.5.2</text>
<text text-anchor="start" x="8" y="-295.6" font-family="Times,serif" font-size="13.00">http://railroady.prestonlee.com</text>
</g>
<!-- Category -->
<g id="node2" class="node"><title>Category</title>
<ellipse fill="none" stroke="black" cx="399" cy="-162" rx="42.7926" ry="18"/>
<text text-anchor="middle" x="399" y="-158.3" font-family="Times,serif" font-size="14.00">Category</text>
</g>
<!-- Movement -->
<g id="node6" class="node"><title>Movement</title>
<ellipse fill="none" stroke="black" cx="273" cy="-90" rx="50.0912" ry="18"/>
<text text-anchor="middle" x="273" y="-86.3" font-family="Times,serif" font-size="14.00">Movement</text>
</g>
<!-- Category&#45;&gt;Movement -->
<g id="edge1" class="edge"><title>Category&#45;&gt;Movement</title>
<path fill="none" stroke="#b5911f" d="M366.954,-143.197C348.987,-133.215 326.549,-120.75 308.107,-110.504"/>
<ellipse fill="none" stroke="#b5911f" cx="370.61" cy="-145.228" rx="4.00002" ry="4.00002"/>
<polygon fill="#b5911f" stroke="#b5911f" points="307.885,-110.38 301.329,-101.59 303.514,-107.952 299.143,-105.524 299.143,-105.524 299.143,-105.524 303.514,-107.952 296.958,-109.458 307.885,-110.38 307.885,-110.38"/>
</g>
<!-- MovementParent -->
<g id="node3" class="node"><title>MovementParent</title>
<ellipse fill="none" stroke="black" cx="273" cy="-18" rx="72.2875" ry="18"/>
<text text-anchor="middle" x="273" y="-14.3" font-family="Times,serif" font-size="14.00">MovementParent</text>
</g>
<!-- MovementParent&#45;&gt;Movement -->
<g id="edge3" class="edge"><title>MovementParent&#45;&gt;Movement</title>
<path fill="none" stroke="#372350" d="M279.516,-44.3382C279.801,-50.0799 279.826,-56.198 279.591,-62.0054"/>
<ellipse fill="none" stroke="#372350" cx="279.211" cy="-40.2642" rx="4" ry="4"/>
<polygon fill="#372350" stroke="#372350" points="279.585,-62.08 274.389,-71.7367 279.232,-67.0675 278.878,-72.055 278.878,-72.055 278.878,-72.055 279.232,-67.0675 283.367,-72.3732 279.585,-62.08 279.585,-62.08"/>
</g>
<!-- ApplicationRecord -->
<g id="node4" class="node"><title>ApplicationRecord</title>
<ellipse fill="none" stroke="black" cx="309" cy="-327" rx="77.1866" ry="18"/>
<text text-anchor="middle" x="309" y="-323.3" font-family="Times,serif" font-size="14.00">ApplicationRecord</text>
</g>
<!-- ApplicationRecord&#45;&gt;Category -->
<g id="edge2" class="edge"><title>ApplicationRecord&#45;&gt;Category</title>
<path fill="none" stroke="black" d="M318.461,-308.864C335.792,-277.477 372.43,-211.122 389.665,-179.906"/>
</g>
<!-- ApplicationRecord&#45;&gt;MovementParent -->
<g id="edge4" class="edge"><title>ApplicationRecord&#45;&gt;MovementParent</title>
<path fill="none" stroke="black" d="M276.589,-310.536C238.268,-291.925 178.905,-261.936 173,-252 146.382,-207.214 162.345,-154.73 214,-72 223.042,-57.5176 237.168,-44.6302 249.33,-35.1905"/>
</g>
<!-- Account -->
<g id="node5" class="node"><title>Account</title>
<ellipse fill="none" stroke="black" cx="222" cy="-234" rx="40.0939" ry="18"/>
<text text-anchor="middle" x="222" y="-230.3" font-family="Times,serif" font-size="14.00">Account</text>
</g>
<!-- ApplicationRecord&#45;&gt;Account -->
<g id="edge7" class="edge"><title>ApplicationRecord&#45;&gt;Account</title>
<path fill="none" stroke="black" d="M293.043,-309.309C277.149,-292.685 252.922,-267.343 237.272,-250.975"/>
</g>
<!-- ApplicationRecord&#45;&gt;Movement -->
<g id="edge9" class="edge"><title>ApplicationRecord&#45;&gt;Movement</title>
<path fill="none" stroke="black" d="M312.257,-308.948C317.822,-276.133 326.924,-202.289 309,-144 304.815,-130.391 295.815,-117.141 287.861,-107.293"/>
</g>
<!-- User -->
<g id="node7" class="node"><title>User</title>
<ellipse fill="none" stroke="black" cx="273" cy="-162" rx="27.0966" ry="18"/>
<text text-anchor="middle" x="273" y="-158.3" font-family="Times,serif" font-size="14.00">User</text>
</g>
<!-- ApplicationRecord&#45;&gt;User -->
<g id="edge11" class="edge"><title>ApplicationRecord&#45;&gt;User</title>
<path fill="none" stroke="black" d="M305.215,-308.864C298.283,-277.477 283.628,-211.122 276.734,-179.906"/>
</g>
<!-- HistoryMovement -->
<g id="node8" class="node"><title>HistoryMovement</title>
<ellipse fill="none" stroke="black" cx="470" cy="-234" rx="76.0865" ry="18"/>
<text text-anchor="middle" x="470" y="-230.3" font-family="Times,serif" font-size="14.00">HistoryMovement</text>
</g>
<!-- ApplicationRecord&#45;&gt;HistoryMovement -->
<g id="edge12" class="edge"><title>ApplicationRecord&#45;&gt;HistoryMovement</title>
<path fill="none" stroke="black" d="M337.044,-310.149C366.504,-293.497 412.567,-267.462 442.008,-250.822"/>
</g>
<!-- Account&#45;&gt;Movement -->
<g id="edge5" class="edge"><title>Account&#45;&gt;Movement</title>
<path fill="none" stroke="#dd0f29" d="M223.411,-207.309C225.102,-189.094 228.822,-164.369 237,-144 240.937,-134.194 246.91,-124.367 252.865,-115.885"/>
<ellipse fill="none" stroke="#dd0f29" cx="223.056" cy="-211.694" rx="4" ry="4"/>
<polygon fill="#dd0f29" stroke="#dd0f29" points="253.046,-115.64 262.601,-110.26 256.012,-111.615 258.979,-107.591 258.979,-107.591 258.979,-107.591 256.012,-111.615 255.356,-104.921 253.046,-115.64 253.046,-115.64"/>
</g>
<!-- Account&#45;&gt;User -->
<g id="edge6" class="edge"><title>Account&#45;&gt;User</title>
<path fill="none" stroke="#b1dfb5" d="M239.871,-208.471C244.943,-201.509 250.459,-193.939 255.508,-187.008"/>
<polygon fill="#b1dfb5" stroke="#b1dfb5" points="239.717,-208.682 230.192,-214.115 236.773,-212.723 233.829,-216.765 233.829,-216.765 233.829,-216.765 236.773,-212.723 237.466,-219.415 239.717,-208.682 239.717,-208.682"/>
<polygon fill="#b1dfb5" stroke="#b1dfb5" points="255.698,-186.748 265.223,-181.316 258.642,-182.707 261.586,-178.666 261.586,-178.666 261.586,-178.666 258.642,-182.707 257.949,-176.016 255.698,-186.748 255.698,-186.748"/>
</g>
<!-- Movement&#45;&gt;MovementParent -->
<g id="edge8" class="edge"><title>Movement&#45;&gt;MovementParent</title>
<path fill="none" stroke="#d3db6c" d="M266.5,-63.9868C266.205,-58.2493 266.171,-52.1211 266.398,-46.2929"/>
<ellipse fill="none" stroke="#d3db6c" cx="266.815" cy="-68.0668" rx="4" ry="4"/>
<polygon fill="#d3db6c" stroke="#d3db6c" points="266.4,-46.2517 271.577,-36.5844 266.744,-41.2635 267.087,-36.2753 267.087,-36.2753 267.087,-36.2753 266.744,-41.2635 262.598,-35.9662 266.4,-46.2517 266.4,-46.2517"/>
</g>
<!-- User&#45;&gt;Movement -->
<g id="edge10" class="edge"><title>User&#45;&gt;Movement</title>
<path fill="none" stroke="#7a70a5" d="M273,-135.64C273,-130.063 273,-124.132 273,-118.476"/>
<ellipse fill="none" stroke="#7a70a5" cx="273" cy="-139.697" rx="4" ry="4"/>
<polygon fill="#7a70a5" stroke="#7a70a5" points="273,-118.104 277.5,-108.104 273,-113.104 273,-108.104 273,-108.104 273,-108.104 273,-113.104 268.5,-108.104 273,-118.104 273,-118.104"/>
</g>
<!-- MaterialIcon -->
<g id="node9" class="node"><title>MaterialIcon</title>
<polygon fill="none" stroke="black" points="491.5,-345 404.5,-345 404.5,-309 491.5,-309 491.5,-345"/>
<text text-anchor="middle" x="448" y="-323.3" font-family="Times,serif" font-size="14.00">MaterialIcon</text>
</g>
</g>
</svg>
